<svg width="173" height="74" viewBox="0 0 173 74" fill="none" xmlns="http://www.w3.org/2000/svg">
<path d="M41.1918 39.0718C40.1918 33.5718 46.6918 31.0718 46.6918 31.0718C46.6918 31.0718 41.1918 32.0718 38.6918 34.5718C36.1918 37.0718 35.5836 40.4528 35.1918 44.5718C34.7602 49.1097 35.1918 56.5718 35.1918 56.5718C35.1918 60.0718 38.4581 62.4713 41.1918 66.5718C41.1918 66.5718 46.6918 72.0718 52.1918 73.0718C57.6918 74.0718 66.1918 70.5718 66.1918 70.5718L77.6918 62.5718C77.6918 62.5718 82.1918 59.5718 87.6918 52.0718C93.1918 44.5718 93.2215 38.0194 87.6918 33.0718C86.6425 32.1329 85.937 31.7292 84.6918 31.0718C82.1777 29.7443 80.5122 28.7137 77.6918 29.0718C74.735 29.4472 73.56 31.262 71.1918 33.0718C66.4631 36.6856 62.1918 44.5718 62.1918 44.5718C62.1918 44.5718 58.6167 52.2632 54.6918 52.0718C51.1115 51.8971 49.0682 51.7554 46.6918 49.0718C45.0698 47.2401 42.1918 44.5718 41.1918 39.0718Z" fill="black"/>
<path d="M130.981 39.0863C131.984 33.6176 125.465 31.1318 125.465 31.1318C125.465 31.1318 130.981 32.1261 133.489 34.6119C135.996 37.0977 136.606 40.4595 136.999 44.5551C137.432 49.0672 136.999 56.4869 136.999 56.4869C136.999 59.967 133.723 62.3529 130.981 66.4301C130.981 66.4301 125.465 71.8988 119.948 72.8931C114.431 73.8874 105.906 70.4073 105.906 70.4073L94.3708 62.4528C94.3708 62.4528 89.8571 59.4698 84.3405 52.0125C78.8238 44.5551 78.7941 38.0399 84.3405 33.1204C85.393 32.1869 86.1007 31.7855 87.3496 31.1318C89.8713 29.8119 91.5418 28.7871 94.3708 29.1432C97.3365 29.5164 98.5151 31.3209 100.89 33.1204C105.633 36.7137 109.918 44.5551 109.918 44.5551C109.918 44.5551 113.504 52.2028 117.44 52.0125C121.032 51.8388 123.081 51.6978 125.465 49.0295C127.092 47.2082 129.978 44.5551 130.981 39.0863Z" fill="black"/>
<path d="M0.656799 0.836005H9.9808C12.7648 0.836005 15.1888 1.34001 17.2528 2.34801C19.3408 3.35601 20.9488 4.80801 22.0768 6.70401C23.2288 8.57601 23.8048 10.772 23.8048 13.292C23.8048 17.468 22.5688 20.636 20.0968 22.796C17.6248 24.932 14.2288 26 9.9088 26H0.656799V0.836005ZM10.4488 19.736C12.2968 19.736 13.7128 19.16 14.6968 18.008C15.7048 16.856 16.2088 15.284 16.2088 13.292C16.2088 11.516 15.7048 10.04 14.6968 8.86401C13.6888 7.68801 12.3088 7.10001 10.5568 7.10001H8.1088V19.736H10.4488Z" fill="black"/>
<path d="M25.9693 0.836005H44.2213V7.10001H33.4213V10.556H41.1973V16.28H33.4213V19.736H44.2213V26H25.9693V0.836005Z" fill="black"/>
<path d="M46.0084 0.836005H53.4604V19.736H63.6124V26H46.0084V0.836005Z" fill="black"/>
<path d="M65.063 0.836005H72.5151V26H65.063V0.836005Z" fill="black"/>
<path d="M88.503 26.54C85.719 26.54 83.283 26.012 81.195 24.956C79.107 23.9 77.499 22.388 76.371 20.42C75.243 18.452 74.679 16.124 74.679 13.436C74.679 10.748 75.243 8.42001 76.371 6.45201C77.499 4.46001 79.107 2.93601 81.195 1.88001C83.283 0.824006 85.719 0.296005 88.503 0.296005C92.247 0.296005 95.175 0.992006 97.287 2.38401V9.26001C96.231 8.46801 95.043 7.89201 93.723 7.53201C92.403 7.17201 90.879 6.99201 89.151 6.99201C86.895 6.99201 85.179 7.55601 84.003 8.68401C82.851 9.81201 82.275 11.396 82.275 13.436C82.275 15.572 82.827 17.192 83.931 18.296C85.059 19.376 86.679 19.916 88.791 19.916C89.823 19.916 90.663 19.772 91.311 19.484V16.28H87.855V11.564H98.115V24.164C95.571 25.748 92.367 26.54 88.503 26.54Z" fill="black"/>
<path d="M113.178 26.54C110.634 26.54 108.318 25.988 106.23 24.884C104.166 23.78 102.534 22.244 101.334 20.276C100.158 18.284 99.5696 16.004 99.5696 13.436C99.5696 10.868 100.158 8.58801 101.334 6.59601C102.534 4.60401 104.166 3.05601 106.23 1.95201C108.318 0.848005 110.634 0.296005 113.178 0.296005C115.722 0.296005 118.014 0.848005 120.054 1.95201C122.118 3.05601 123.738 4.60401 124.914 6.59601C126.114 8.58801 126.714 10.868 126.714 13.436C126.714 16.004 126.114 18.284 124.914 20.276C123.738 22.244 122.118 23.78 120.054 24.884C118.014 25.988 115.722 26.54 113.178 26.54ZM113.178 19.556C114.282 19.556 115.278 19.316 116.166 18.836C117.078 18.332 117.798 17.624 118.326 16.712C118.854 15.776 119.118 14.684 119.118 13.436C119.118 11.588 118.554 10.112 117.426 9.00801C116.298 7.90401 114.882 7.35201 113.178 7.35201C111.45 7.35201 110.01 7.90401 108.858 9.00801C107.73 10.112 107.166 11.588 107.166 13.436C107.166 14.684 107.43 15.776 107.958 16.712C108.486 17.624 109.206 18.332 110.118 18.836C111.03 19.316 112.05 19.556 113.178 19.556Z" fill="black"/>
<path d="M128.872 0.836005H138.196C140.98 0.836005 143.404 1.34001 145.468 2.34801C147.556 3.35601 149.164 4.80801 150.292 6.70401C151.444 8.57601 152.02 10.772 152.02 13.292C152.02 17.468 150.784 20.636 148.312 22.796C145.84 24.932 142.444 26 138.124 26H128.872V0.836005ZM138.664 19.736C140.512 19.736 141.928 19.16 142.912 18.008C143.92 16.856 144.424 15.284 144.424 13.292C144.424 11.516 143.92 10.04 142.912 8.86401C141.904 7.68801 140.524 7.10001 138.772 7.10001H136.324V19.736H138.664Z" fill="black"/>
<path d="M154.184 0.836005H172.436V7.10001H161.636V10.556H169.412V16.28H161.636V19.736H172.436V26H154.184V0.836005Z" fill="black"/>
</svg>
